# xmcd CD database file
#
# Track frame offsets:
#	150
#	20567
#	39170
#
# Disc length: 792 seconds
#
# Revision: 0
# Processed by: cddbd v1.5PL3 Copyright (c) Steve Scherf et al.
# Submitted via: CDex 1.51
#
DISCID=18031603
DTITLE=鈴里真帆 - 悲しみは明日を知るための涙
DYEAR=1994
DGENRE=JPop
TTITLE0=悲しみは明日を知るための涙
TTITLE1=きっときっと
TTITLE2=悲しみは明日を知るための涙 (オリジナル･カラオケ)
EXTD=YEAR: 1994
EXTT0=
EXTT1=
EXTT2=
PLAYORDER=
